<?xml version="1.0" encoding="utf-8"?>
<!-- Generator: Adobe Illustrator 19.1.0, SVG Export Plug-In . SVG Version: 6.00 Build 0)  -->
<!DOCTYPE svg PUBLIC "-//W3C//DTD SVG 1.1//EN" "http://www.w3.org/Graphics/SVG/1.1/DTD/svg11.dtd">
<svg version="1.1" id="Ebene_1" xmlns="http://www.w3.org/2000/svg" xmlns:xlink="http://www.w3.org/1999/xlink" x="0px" y="0px"
	 viewBox="0 0 1000 1000" enable-background="new 0 0 1000 1000" xml:space="preserve">
<path fill="#FFFFFF" d="M765.2,48.1c-1.2-7.6-6.4-13.9-13.6-16.5c-43.7-16-101.5-31.8-163.5-31.8c-48.6,0-100.1,9.9-148.1,37.9l0,0
	c-24.1,14-43.1,31.7-57.7,51.7c-21.8,29.9-33.3,64.5-39.9,99.5c-5.3,28.3-7.3,57.2-8.4,85.1c-12.5,0.3-26.6,0.4-39.5,0.4
	c-11.3,0-21.6-0.1-29.1-0.1c-3.8-0.1-6.8-0.1-8.9-0.1c-2.1-0.1-3.2-0.1-3.2-0.1c-5.6-0.1-11.2,2.2-15.3,6.2c-4.1,4-6.3,9.5-6.3,15.2
	l0.8,140.8c0.1,11.7,9.6,22.1,21.3,22.1c0,0,5.6,0,14.8,0c20.7,0,59.4-0.8,89.2-0.3c4.4,96.8,5.4,241.8,5.4,354.3
	c0,47.5-0.2,88.8-0.4,118.6c-0.1,14.9-0.2,26.6-0.3,34.8c-0.1,8.2-0.1,12.5-0.1,12.5c-0.1,5.7,2.2,11.2,6.2,15.2
	c4,4,9.5,6.3,15.1,6.3l188.6-0.9c5.7-0.1,11-2.3,15-6.4c4.1-4.1,6.2-9.5,6.1-15.1c0,0-1-115.9-2.1-241c-1-107.6-2.1-221.7-2.7-274.8
	c11.6-0.2,25.1-0.3,38.3-0.3c15.4,0,30.4,0.1,41.5,0.1c5.6,0.1,10.1,0.1,13.4,0.1c3.2,0.1,5,0.1,5,0.1c5.6,0.1,11.1-2.1,15.2-6
	c4.1-4.1,6.4-9.4,6.4-15.1l0.2-130.4c0.1-5.8-2.2-13-6.2-17c-4-4-9.4-8-15-8c0,0-2.6,0-7.1,0c-4.6,0-10.9,1.9-18.7,1.9
	c-23.7,0-59.4,0.8-87.7,0.4c0.5-14.5,1.8-26.8,3.9-37.7c2.1-10.6,4.8-19.2,8.2-26.3c2.5-5.3,5.3-9.5,8.2-13
	c4.6-5.3,9.5-8.8,15.8-11.4c6.3-2.7,14.2-4.2,24.4-4.2c18.1-0.1,42.8,5.3,73.9,17.2c0.2,0.1,0.4,0.1,0.7,0.3
	c0.3,0.1,0.5,0.3,0.8,0.3c0.4,0.2,0.9,0.2,1.3,0.3c0.7,0.2,1.4,0.3,2.1,0.4c0.6,0.1,1.3,0.2,2,0.2c0.7,0,1.4,0,2.1,0
	c0.7-0.1,1.4-0.2,2-0.3c0.7-0.1,1.3-0.3,2-0.4c0.6-0.2,1.3-0.4,1.9-0.6c0.6-0.2,1.3-0.4,1.9-0.8c0.6-0.3,1.2-0.6,1.7-1
	c0.6-0.4,1.2-0.7,1.7-1.1c0.5-0.4,1-0.8,1.5-1.3c0.6-0.5,1.1-0.9,1.5-1.5c0.5-0.5,0.8-1,1.2-1.6c0.4-0.5,0.8-1.1,1.2-1.7
	c0.3-0.6,0.6-1.3,0.9-1.9c0.2-0.5,0.5-0.8,0.6-1.3c0.1-0.3,0.1-0.5,0.2-0.8c0.1-0.3,0.2-0.5,0.3-0.7c4.3-14.1,11.7-37.8,18-62.7
	c3.2-12.5,6.1-25.4,8.2-37.8c2.2-12.4,3.6-24.2,3.6-35.3C766.3,57.6,766,52.8,765.2,48.1z"/>
</svg>
