<?xml version="1.0" encoding="utf-8"?>
<!-- Generator: Adobe Illustrator 14.0.0, SVG Export Plug-In . SVG Version: 6.00 Build 43363)  -->
<!DOCTYPE svg PUBLIC "-//W3C//DTD SVG 1.1//EN" "http://www.w3.org/Graphics/SVG/1.1/DTD/svg11.dtd">
<svg version="1.1" id="Ebene_1" xmlns="http://www.w3.org/2000/svg" xmlns:xlink="http://www.w3.org/1999/xlink" x="0px" y="0px"
	 width="1400px" height="768px" viewBox="0 0 1400 768" enable-background="new 0 0 1400 768" xml:space="preserve">
<path fill="#FFFFFF" d="M709.563,367.648c-0.044-0.271-0.229-0.498-0.487-0.591c-1.562-0.571-3.629-1.138-5.848-1.138
	c-1.738,0-3.581,0.354-5.295,1.354l0,0c-0.862,0.501-1.542,1.135-2.062,1.85c-0.778,1.071-1.192,2.306-1.426,3.559
	c-0.189,1.013-0.261,2.045-0.299,3.045c-0.447,0.01-0.953,0.013-1.412,0.013c-0.404,0-0.773-0.002-1.04-0.004
	c-0.136-0.003-0.244-0.004-0.32-0.004c-0.075-0.003-0.115-0.003-0.115-0.003c-0.202-0.002-0.4,0.079-0.546,0.221
	c-0.145,0.142-0.227,0.34-0.225,0.544l0.03,5.037c0.003,0.42,0.344,0.789,0.762,0.789c0.001,0,0.202,0,0.529,0
	c0.742,0,2.125-0.03,3.19-0.011c0.158,3.461,0.194,8.647,0.194,12.671c0,1.697-0.007,3.177-0.013,4.241
	c-0.004,0.532-0.006,0.953-0.009,1.246c-0.004,0.293-0.004,0.448-0.004,0.448c-0.003,0.205,0.078,0.399,0.221,0.542
	c0.142,0.143,0.339,0.226,0.54,0.224l6.744-0.033c0.203-0.002,0.395-0.082,0.535-0.228c0.145-0.145,0.221-0.338,0.219-0.539
	c0,0-0.035-4.146-0.074-8.62c-0.036-3.847-0.075-7.927-0.098-9.829c0.415-0.007,0.898-0.009,1.371-0.009
	c0.551,0,1.088,0.002,1.485,0.005c0.199,0.003,0.363,0.004,0.478,0.004c0.115,0.002,0.179,0.002,0.179,0.002
	c0.202,0.004,0.397-0.076,0.542-0.216c0.145-0.145,0.228-0.336,0.228-0.539l0.007-4.665c0.002-0.207-0.078-0.464-0.222-0.608
	c-0.144-0.144-0.336-0.286-0.538-0.286c0,0-0.093,0-0.253,0c-0.163,0-0.391,0.067-0.667,0.067c-0.846,0-2.125,0.03-3.137,0.013
	c0.019-0.517,0.064-0.959,0.141-1.35c0.075-0.379,0.173-0.686,0.295-0.939c0.088-0.19,0.189-0.341,0.295-0.466
	c0.163-0.188,0.339-0.315,0.565-0.408c0.226-0.095,0.509-0.149,0.872-0.15c0.646-0.003,1.531,0.188,2.643,0.616
	c0.008,0.002,0.016,0.005,0.024,0.009c0.011,0.002,0.017,0.009,0.027,0.01c0.016,0.007,0.032,0.008,0.048,0.011
	c0.025,0.006,0.051,0.011,0.076,0.014c0.023,0.004,0.048,0.007,0.073,0.007c0.026,0,0.051,0.001,0.075,0
	c0.024-0.003,0.049-0.007,0.072-0.011c0.025-0.004,0.048-0.009,0.072-0.016c0.021-0.006,0.045-0.014,0.067-0.023
	c0.022-0.008,0.045-0.016,0.068-0.027c0.021-0.009,0.043-0.021,0.062-0.034c0.021-0.013,0.042-0.025,0.062-0.04
	c0.019-0.015,0.036-0.03,0.054-0.048c0.02-0.018,0.038-0.033,0.055-0.054c0.017-0.017,0.028-0.036,0.044-0.058
	c0.015-0.018,0.03-0.038,0.044-0.06c0.012-0.021,0.021-0.045,0.033-0.067c0.008-0.017,0.017-0.029,0.022-0.046
	c0.004-0.011,0.004-0.019,0.008-0.027c0.002-0.009,0.008-0.017,0.01-0.024c0.153-0.505,0.417-1.352,0.642-2.243
	c0.114-0.446,0.217-0.908,0.295-1.351c0.078-0.445,0.129-0.865,0.129-1.262C709.602,367.986,709.591,367.816,709.563,367.648z"/>
</svg>
